<svg width="24" height="32" viewBox="0 0 24 32" fill="none" xmlns="http://www.w3.org/2000/svg">
<g clip-path="url(#clip0_33_1686)">
<path fill-rule="evenodd" clip-rule="evenodd" d="M12 9C10.343 9 9 10.343 9 12C9 13.657 10.343 15 12 15C13.657 15 15 13.657 15 12C15 10.343 13.657 9 12 9ZM12 17C9.239 17 7 14.762 7 12C7 9.238 9.239 7 12 7C14.761 7 17 9.238 17 12C17 14.762 14.761 17 12 17ZM12 0C5.373 0 0 5.373 0 12C0 17.018 10.005 32.011 12 32C13.964 32.011 24 16.95 24 12C24 5.373 18.627 0 12 0Z" fill="#1B1B1E"/>
</g>
<defs>
<clipPath id="clip0_33_1686">
<rect width="24" height="32" fill="white"/>
</clipPath>
</defs>
</svg>
