<svg width="11" height="11" viewBox="0 0 11 11" fill="none" xmlns="http://www.w3.org/2000/svg">
<path d="M2.8775 2.1475L1.9825 1.25L1.275 1.9575L2.1725 2.855L2.8775 2.1475ZM1.5 4.975H0V5.975H1.5V4.975ZM6 0H5V1.475H6V0ZM9.725 1.9575L9.0175 1.25L8.12 2.1475L8.8275 2.855L9.725 1.9575ZM8.1225 8.8025L9.02 9.7L9.7275 8.9925L8.83 8.095L8.1225 8.8025ZM9.5 4.975V5.975H11V4.975H9.5ZM5.5 2.475C3.8425 2.475 2.5 3.8175 2.5 5.475C2.5 7.1325 3.8425 8.475 5.5 8.475C7.1575 8.475 8.5 7.1325 8.5 5.475C8.5 3.8175 7.1575 2.475 5.5 2.475ZM5 10.95H6V9.475H5V10.95ZM1.275 8.9925L1.9825 9.7L2.88 8.8025L2.1725 8.095L1.275 8.9925Z" fill="#111216"/>
</svg>
